<svg xmlns="http://www.w3.org/2000/svg" version="1.1" xmlns:xlink="http://www.w3.org/1999/xlink" width="200" height="200"><svg xmlns="http://www.w3.org/2000/svg" version="1.1" xmlns:xlink="http://www.w3.org/1999/xlink" viewBox="0 0 200 200"><rect width="200" height="200" fill="url('#gradient')"></rect><defs><linearGradient id="SvgjsLinearGradient1001" gradientTransform="rotate(281 0.5 0.5)"><stop offset="0%" stop-color="#1b6f55"></stop><stop offset="100%" stop-color="#1b6f55"></stop></linearGradient></defs><g><g fill="#ffffff" transform="matrix(4.091453940066593,0,0,4.091453940066593,8.557371553305643,130.2791017271967)" stroke="#c2d02d" stroke-width="0.3"><path d="M6.74-4.46L6.74-14.22L10.16-14.22L10.16-4.46Q10.16-3.11 9.53-2.04Q8.90-0.98 7.77-0.39Q6.64 0.20 5.25 0.20L5.25 0.20Q2.93 0.20 1.64-0.98Q0.35-2.15 0.35-4.30L0.35-4.30L3.79-4.30Q3.79-3.32 4.13-2.88Q4.46-2.44 5.25-2.44L5.25-2.44Q5.97-2.44 6.35-2.97Q6.74-3.51 6.74-4.46L6.74-4.46ZM11.76-4.82L11.75-5.38Q11.75-6.96 12.36-8.20Q12.98-9.43 14.13-10.10Q15.28-10.76 16.84-10.76L16.84-10.76Q19.21-10.76 20.58-9.29Q21.94-7.82 21.94-5.29L21.94-5.29L21.94-5.18Q21.94-2.71 20.57-1.25Q19.20 0.20 16.86 0.20L16.86 0.20Q14.60 0.20 13.23-1.16Q11.87-2.51 11.76-4.82L11.76-4.82ZM15.05-5.77L15.04-5.18Q15.04-3.71 15.50-3.03Q15.96-2.34 16.86-2.34L16.86-2.34Q18.61-2.34 18.65-5.05L18.65-5.05L18.65-5.38Q18.65-8.22 16.84-8.22L16.84-8.22Q15.19-8.22 15.05-5.77L15.05-5.77ZM23.94-13.19L27.23-13.19L27.23-10.57L28.96-10.57L28.96-8.28L27.23-8.28L27.23-3.45Q27.23-2.85 27.44-2.62Q27.66-2.38 28.29-2.38L28.29-2.38Q28.78-2.38 29.11-2.44L29.11-2.44L29.11-0.09Q28.22 0.20 27.26 0.20L27.26 0.20Q25.56 0.20 24.75-0.61Q23.94-1.41 23.94-3.04L23.94-3.04L23.94-8.28L22.59-8.28L22.59-10.57L23.94-10.57L23.94-13.19ZM39.50 0L36.21 0Q36.04-0.32 35.90-0.95L35.90-0.95Q34.99 0.20 33.36 0.20L33.36 0.20Q31.87 0.20 30.82-0.71Q29.78-1.61 29.78-2.98L29.78-2.98Q29.78-4.70 31.04-5.58Q32.31-6.46 34.74-6.46L34.74-6.46L35.75-6.46L35.75-7.01Q35.75-8.47 34.49-8.47L34.49-8.47Q33.32-8.47 33.32-7.31L33.32-7.31L30.03-7.31Q30.03-8.85 31.33-9.80Q32.64-10.76 34.66-10.76Q36.68-10.76 37.85-9.78Q39.02-8.79 39.05-7.07L39.05-7.07L39.05-2.39Q39.07-0.94 39.50-0.17L39.50-0.17L39.50 0ZM34.15-2.15L34.15-2.15Q34.77-2.15 35.17-2.41Q35.58-2.68 35.75-3.01L35.75-3.01L35.75-4.70L34.79-4.70Q33.08-4.70 33.08-3.15L33.08-3.15Q33.08-2.71 33.38-2.43Q33.68-2.15 34.15-2.15ZM44.35-15L44.35 0L41.04 0L41.04-15L44.35-15Z"></path></g></g></svg><style>@media (prefers-color-scheme: light) { :root { filter: none; } }
@media (prefers-color-scheme: dark) { :root { filter: none; } }
</style></svg>